# File created by Blade
# Date/Time:  Wed Jan 21 17:34:14 2015
#---------------------------------------------------------
:version 1.10
:name HOM
:units
  mass 1.0
  length 1.000000
  angle deg
:documentation
     Acclaim Skeleton File
:root
   axis xyz
   order TX TY TZ RX RY RZ
   position 0.000000 0.000000 0.000000
   orientation 0 0 0
:bonedata
   begin
      id 1
      name Spine_dum
      direction 0.000000 1.000000 0.000000
      length 7.067664
      axis 0.0 0.0 0.0 xyz
   end
   begin
      id 2
      name LeftUpLeg_dum
      direction 1.000000 0.000000 0.000000
      length 4.013002
      axis 0.0 0.0 0.0 xyz
   end
   begin
      id 3
      name RightUpLeg_dum
      direction -1.000000 0.000000 0.000000
      length 4.013002
      axis 0.0 0.0 0.0 xyz
   end
   begin
      id 4
      name Spine
      direction 0.000000 1.000000 0.000000
      length 0.000000
      axis 0.0 0.0 0.0 xyz
      dof rx ry rz
   end
   begin
      id 5
      name Spine_dum1
      direction 0.000000 1.000000 0.000000
      length 15.039886
      axis 0.0 0.0 0.0 xyz
   end
   begin
      id 6
      name Spine_dum2
      direction 0.000000 1.000000 0.000000
      length 10.530368
      axis 0.0 0.0 0.0 xyz
   end
   begin
      id 7
      name Spine_dum3
      direction 0.000000 1.000000 0.000000
      length 10.530368
      axis 0.0 0.0 0.0 xyz
   end
   begin
      id 8
      name Head
      direction 0.000000 1.000000 0.000000
      length 4.527550
      axis 0.0 0.0 0.0 xyz
      dof rx ry rz
   end
   begin
      id 9
      name LeftShoulder
      direction 1.000000 0.000000 0.000000
      length 7.028855
      axis 0.0 0.0 -90.0 xyz
      dof rx ry rz
   end
   begin
      id 10
      name LeftArm
      direction 1.000000 0.000000 0.000000
      length 10.797705
      axis 0.0 0.0 -90.0 xyz
      dof rx ry rz
   end
   begin
      id 11
      name LeftForeArm
      direction 1.000000 0.000000 0.000000
      length 7.907442
      axis 0.0 0.0 -90.0 xyz
      dof ry rz rx
   end
   begin
      id 12
      name LeftHand
      direction 0.000000 0.000000 0.000000
      length 0.000000
      axis 0.0 0.0 -90.0 xyz
      dof rx ry rz
   end
   begin
      id 13
      name LeftHand_dum1
      direction 0.000000 0.000000 0.000000
      length 0.000000
      axis 0.0 0.0 -90.0 xyz
   end
   begin
      id 14
      name LeftHand_dum2
      direction 1.000000 0.000000 0.000000
      length 3.937000
      axis 0.0 0.0 -90.0 xyz
   end
   begin
      id 15
      name LeftHandThumb1
      direction 0.000000 0.000000 1.000000
      length 3.937000
      axis 0.0 0.0 -90.0 xyz
      dof rx rz ry
   end
   begin
      id 16
      name RightShoulder
      direction -1.000000 0.000000 0.000000
      length 7.028855
      axis 0.0 0.0 90.0 xyz
      dof rx ry rz
   end
   begin
      id 17
      name RightArm
      direction -1.000000 0.000000 0.000000
      length 10.797705
      axis 0.0 0.0 90.0 xyz
      dof rx ry rz
   end
   begin
      id 18
      name RightForeArm
      direction -1.000000 0.000000 0.000000
      length 7.907442
      axis 0.0 0.0 90.0 xyz
      dof ry rz rx
   end
   begin
      id 19
      name RightHand
      direction 0.000000 0.000000 0.000000
      length 0.000000
      axis 0.0 0.0 90.0 xyz
      dof rx ry rz
   end
   begin
      id 20
      name RightHand_dum1
      direction 0.000000 0.000000 0.000000
      length 0.000000
      axis 0.0 0.0 90.0 xyz
   end
   begin
      id 21
      name RightHand_dum2
      direction -1.000000 0.000000 0.000000
      length 3.937000
      axis 0.0 0.0 90.0 xyz
   end
   begin
      id 22
      name RightHandThumb1
      direction 0.000000 0.000000 1.000000
      length 3.937000
      axis 0.0 0.0 90.0 xyz
      dof rx rz ry
   end
   begin
      id 23
      name LeftUpLeg
      direction 0.000000 -1.000000 0.000000
      length 16.899758
      axis 0.0 0.0 0.0 xyz
      dof rx ry rz
   end
   begin
      id 24
      name LeftLeg
      direction 0.000000 -1.000000 0.000000
      length 17.389183
      axis 0.0 0.0 0.0 xyz
      dof rx ry rz
   end
   begin
      id 25
      name LeftFoot
      direction 0.000000 -0.258819 0.965926
      length 4.924528
      axis 15.0 0.0 0.0 xyz
      dof rx ry rz
   end
   begin
      id 26
      name LeftToeBase
      direction 0.000000 0.000000 1.000000
      length 2.952750
      axis 0.0 0.0 0.0 xyz
      dof rx ry rz
   end
   begin
      id 27
      name RightUpLeg
      direction 0.000000 -1.000000 0.000000
      length 16.899758
      axis 0.0 0.0 0.0 xyz
      dof rx ry rz
   end
   begin
      id 28
      name RightLeg
      direction 0.000000 -1.000000 0.000000
      length 17.389183
      axis 0.0 0.0 0.0 xyz
      dof rx ry rz
   end
   begin
      id 29
      name RightFoot
      direction 0.000000 -0.258819 0.965926
      length 4.924528
      axis 15.0 0.0 0.0 xyz
      dof rx ry rz
   end
   begin
      id 30
      name RightToeBase
      direction 0.000000 0.000000 1.000000
      length 2.952750
      axis 0.0 0.0 0.0 xyz
      dof rx ry rz
   end
:hierarchy
   begin
      root Spine_dum LeftUpLeg_dum RightUpLeg_dum
      Spine_dum Spine
      LeftUpLeg_dum LeftUpLeg
      RightUpLeg_dum RightUpLeg
      Spine Spine_dum1 Spine_dum2 Spine_dum3
      Spine_dum1 Head
      Spine_dum2 LeftShoulder
      Spine_dum3 RightShoulder
      LeftShoulder LeftArm
      LeftArm LeftForeArm
      LeftForeArm LeftHand
      LeftHand LeftHand_dum1 LeftHand_dum2
      LeftHand_dum1 LeftHandThumb1
      RightShoulder RightArm
      RightArm RightForeArm
      RightForeArm RightHand
      RightHand RightHand_dum1 RightHand_dum2
      RightHand_dum1 RightHandThumb1
      LeftUpLeg LeftLeg
      LeftLeg LeftFoot
      LeftFoot LeftToeBase
      RightUpLeg RightLeg
      RightLeg RightFoot
      RightFoot RightToeBase
   end

# File created by Blade
# Date/Time:  Wed Jan 21 17:34:04 2015
# Frame Rate: 120.000 fps
#------------------------------------------------------
:FULLY-SPECIFIED
:DEGREES
102
root 19.042130 35.783030 -19.208423 -179.890562 -1.032369 -179.686701
Spine 16.647581 3.414781 -0.787832
Head 24.446951 -3.234560 1.362562
LeftShoulder 2.075790 -25.807461 -5.288504
LeftArm 9.676251 11.579658 -51.712486
LeftForeArm 7.706612 -0.000000 1.742891
LeftHand -3.400301 0.000000 1.824914
LeftHandThumb1 -26.253704 0.000000 33.147579
RightShoulder -1.816212 -8.140149 5.476493
RightArm 30.995904 19.223016 60.871861
RightForeArm -27.628799 -0.000000 16.719191
RightHand -7.386502 -0.000000 -21.382653
RightHandThumb1 -24.326973 -0.000000 -32.862282
LeftUpLeg -2.959785 7.642534 -1.895442
LeftLeg 6.002770 -0.000000 -0.000000
LeftFoot -19.308899 25.746084 -10.844934
LeftToeBase 22.699730 -0.000000 -0.000000
RightUpLeg -2.205979 -10.777071 -2.361176
RightLeg 4.094139 -0.000000 -0.000000
RightFoot -17.280924 -25.827408 15.902327
RightToeBase 24.452114 -0.000000 -0.000000
103
root 18.998628 35.778512 -19.104103 -179.786853 -0.755255 -179.673062
Spine 17.162949 3.569962 -0.744721
Head 24.167220 -3.161544 1.338295
LeftShoulder 2.459019 -25.934612 -5.659591
LeftArm 9.507806 12.277531 -52.769679
LeftForeArm 7.160070 -0.000000 1.626045
LeftHand -3.412873 -0.000000 1.783575
LeftHandThumb1 -26.253704 0.000000 33.147579
RightShoulder -1.410388 -7.933781 5.780005
RightArm 31.314976 18.808491 61.577168
RightForeArm -27.282529 -0.000000 16.356345
RightHand -7.068586 -0.000000 -21.486020
RightHandThumb1 -24.326973 -0.000000 -32.862282
LeftUpLeg -3.309788 7.734976 -1.988657
LeftLeg 6.196086 -0.000000 -0.000000
LeftFoot -19.330968 25.922144 -10.783796
LeftToeBase 22.722234 -0.000000 -0.000000
RightUpLeg -2.808094 -10.488537 -2.356492
RightLeg 4.631663 -0.000000 -0.000000
RightFoot -17.308560 -25.842932 15.973769
RightToeBase 24.444006 -0.000000 -0.000000
104
root 18.956648 35.773034 -19.005660 -179.669844 -0.450540 -179.705956
Spine 17.648712 3.787681 -0.785052
Head 23.891115 -3.172843 1.353789
LeftShoulder 2.862368 -26.092754 -5.945993
LeftArm 9.267412 12.673189 -53.960329
LeftForeArm 6.861417 0.000000 1.472853
LeftHand -3.235780 0.000000 1.843603
LeftHandThumb1 -26.253704 0.000000 33.147579
RightShoulder -1.082902 -7.732447 6.091870
RightArm 31.624250 18.243753 62.237017
RightForeArm -26.939728 0.000000 16.018101
RightHand -6.972713 -0.000000 -21.385672
RightHandThumb1 -24.326973 -0.000000 -32.862282
LeftUpLeg -3.648817 7.876057 -2.128286
LeftLeg 6.359414 -0.000000 -0.000000
LeftFoot -19.332269 26.089028 -10.736366
LeftToeBase 22.789966 -0.000000 -0.000000
RightUpLeg -3.421249 -10.187508 -2.391227
RightLeg 5.168240 -0.000000 -0.000000
RightFoot -17.324448 -25.891563 15.937241
RightToeBase 24.483371 -0.000000 -0.000000
105
root 18.910601 35.767505 -18.900118 -179.507813 -0.143330 -179.749670
Spine 18.112448 3.965716 -0.838483
Head 23.547979 -3.081149 1.388807
LeftShoulder 3.198716 -26.333641 -6.124780
LeftArm 8.920947 12.706497 -55.324022
LeftForeArm 7.045055 -0.000000 1.426185
LeftHand -3.268525 -0.000000 1.811849
LeftHandThumb1 -26.253704 0.000000 33.147579
RightShoulder -0.785333 -7.519508 6.338882
RightArm 31.909334 17.483391 62.798624
RightForeArm -26.716707 -0.000000 15.657201
RightHand -6.629739 -0.000000 -21.023721
RightHandThumb1 -24.326973 -0.000000 -32.862282
LeftUpLeg -3.983832 7.799273 -2.281669
LeftLeg 6.420210 -0.000000 -0.000000
LeftFoot -19.279293 26.420441 -10.686194
LeftToeBase 22.787807 -0.000000 -0.000000
RightUpLeg -4.135980 -9.816590 -2.437719
RightLeg 5.793359 -0.000000 -0.000000
RightFoot -17.376980 -25.986883 15.928742
RightToeBase 24.487501 -0.000000 -0.000000
106
root 18.866956 35.762005 -18.798059 -179.379797 0.167551 -179.769798
Spine 18.617749 4.152749 -0.854112
Head 23.204417 -3.025389 1.387440
LeftShoulder 3.547023 -26.558321 -6.273680
LeftArm 8.684126 11.203588 -56.958946
LeftForeArm 8.655187 -0.000000 1.030059
LeftHand -3.047252 0.000000 1.937724
LeftHandThumb1 -26.253704 0.000000 33.147579
RightShoulder -0.464587 -7.239951 6.493566
RightArm 32.102778 16.749404 63.441619
RightForeArm -26.430989 -0.000000 15.328069
RightHand -6.293769 -0.000000 -21.084469
RightHandThumb1 -24.326973 -0.000000 -32.862282
LeftUpLeg -4.335144 7.930794 -2.408605
LeftLeg 6.578563 -0.000000 -0.000000
LeftFoot -19.256962 26.575623 -10.611947
LeftToeBase 22.803522 -0.000000 -0.000000
RightUpLeg -4.822949 -9.401011 -2.461516
RightLeg 6.439507 -0.000000 -0.000000
RightFoot -17.426021 -26.121020 15.939585
RightToeBase 24.511298 -0.000000 -0.000000
107
root 18.825831 35.756425 -18.697441 -179.213039 0.510341 -179.814195
Spine 19.060893 4.374259 -0.912633
Head 22.880550 -2.935065 1.402997
LeftShoulder 3.849739 -26.655073 -6.456447
LeftArm 8.459173 12.918809 -57.944198
LeftForeArm 7.334750 -0.000000 1.217195
LeftHand -3.162223 -0.000000 1.890863
LeftHandThumb1 -26.253704 0.000000 33.147579
RightShoulder -0.278645 -7.033611 6.685489
RightArm 32.407217 15.725003 63.912634
RightForeArm -26.056349 0.000000 14.976165
RightHand -6.295207 -0.000000 -20.940204
RightHandThumb1 -24.326973 -0.000000 -32.862282
LeftUpLeg -4.683372 8.009672 -2.561120
LeftLeg 6.658814 -0.000000 -0.000000
LeftFoot -19.227539 26.819176 -10.589975
LeftToeBase 22.784239 -0.000000 -0.000000
RightUpLeg -5.585699 -9.032973 -2.498627
RightLeg 7.137252 -0.000000 -0.000000
RightFoot -17.447721 -26.231389 15.851581
RightToeBase 24.559794 -0.000000 -0.000000
108
root 18.785953 35.752494 -18.600536 -179.070884 0.878311 -179.846836
Spine 19.531314 4.627485 -0.950402
Head 22.561002 -2.889125 1.415219
LeftShoulder 4.145974 -26.807116 -6.584313
LeftArm 8.238880 13.381173 -59.221752
LeftForeArm 7.218896 -0.000000 1.188719
LeftHand -3.169027 -0.000000 1.971533
LeftHandThumb1 -26.253704 0.000000 33.147579
RightShoulder -0.091809 -6.779534 6.822250
RightArm 32.653939 14.752871 64.427305
RightForeArm -25.806382 -0.000000 14.551882
RightHand -5.815828 0.000000 -21.126978
RightHandThumb1 -24.326973 -0.000000 -32.862282
LeftUpLeg -5.013191 8.209869 -2.695541
LeftLeg 6.767505 -0.000000 -0.000000
LeftFoot -19.199326 26.960356 -10.570849
LeftToeBase 22.901549 -0.000000 -0.000000
RightUpLeg -6.328956 -8.688008 -2.519887
RightLeg 7.851438 -0.000000 -0.000000
RightFoot -17.454507 -26.295737 15.782229
RightToeBase 24.544061 -0.000000 -0.000000
109
root 18.743586 35.747404 -18.504480 -178.923726 1.234748 -179.891733
Spine 19.990923 4.855783 -0.996125
Head 22.269394 -2.819955 1.434476
LeftShoulder 4.413980 -26.856726 -6.692265
LeftArm 8.148184 13.572801 -60.495547
LeftForeArm 7.520540 0.000000 1.143304
LeftHand -3.219650 -0.000000 2.273968
LeftHandThumb1 -26.253704 0.000000 33.147579
RightShoulder 0.238084 -6.528689 6.812199
RightArm 32.786873 14.196005 65.288375
RightForeArm -25.929324 -0.000000 14.253477
RightHand -5.683892 -0.000000 -20.954636
RightHandThumb1 -24.326973 -0.000000 -32.862282
LeftUpLeg -5.326313 8.349756 -2.847779
LeftLeg 6.828931 -0.000000 -0.000000
LeftFoot -19.170640 27.167224 -10.544517
LeftToeBase 22.963743 -0.000000 -0.000000
RightUpLeg -7.102709 -8.246936 -2.567696
RightLeg 8.615487 -0.000000 -0.000000
RightFoot -17.481030 -26.443022 15.738284
RightToeBase 24.552053 -0.000000 -0.000000
110
root 18.710558 35.743420 -18.404114 -178.750453 1.704015 -179.930295
Spine 20.432684 5.227813 -1.070875
Head 21.922792 -2.774493 1.493721
LeftShoulder 4.707427 -26.981235 -6.729380
LeftArm 8.006755 13.854189 -61.787996
LeftForeArm 7.794162 0.000000 1.058899
LeftHand -3.233367 -0.000000 2.127995
LeftHandThumb1 -26.253704 0.000000 33.147579
RightShoulder 0.405889 -6.275865 6.897684
RightArm 33.050971 13.399747 65.964177
RightForeArm -25.963321 0.000000 13.821169
RightHand -5.455473 -0.000000 -21.029214
RightHandThumb1 -24.326973 -0.000000 -32.862282
LeftUpLeg -5.645911 8.586188 -2.978582
LeftLeg 6.849393 -0.000000 -0.000000
LeftFoot -19.127918 27.348729 -10.542689
LeftToeBase 23.018029 -0.000000 -0.000000
RightUpLeg -7.937257 -7.733972 -2.577452
RightLeg 9.388225 -0.000000 -0.000000
RightFoot -17.462646 -26.639558 15.659130
RightToeBase 24.433799 -0.000000 -0.000000
111
root 18.676295 35.739075 -18.307154 -178.570384 2.155678 -179.980951
Spine 20.838109 5.539904 -1.174438
Head 21.653776 -2.713582 1.557201
LeftShoulder 4.977297 -27.218132 -6.773125
LeftArm 7.735923 14.205769 -63.050425
LeftForeArm 8.076537 0.000000 1.058034
LeftHand -3.282914 -0.000000 1.902571
LeftHandThumb1 -26.253704 0.000000 33.147579
RightShoulder 0.726199 -6.019894 6.885494
RightArm 33.103866 12.685913 66.677095
RightForeArm -25.833879 0.000000 13.569761
RightHand -5.306271 -0.000000 -21.174923
RightHandThumb1 -24.326973 -0.000000 -32.862282
LeftUpLeg -5.958813 8.790111 -3.121559
LeftLeg 6.856107 -0.000000 -0.000000
LeftFoot -19.061681 27.534991 -10.527387
LeftToeBase 23.003506 -0.000000 -0.000000
RightUpLeg -8.797541 -7.196183 -2.605995
RightLeg 10.211573 -0.000000 -0.000000
RightFoot -17.452201 -26.809407 15.430039
RightToeBase 24.289752 -0.000000 -0.000000
